<svg width="158" height="346" viewBox="0 0 158 346" fill="none" xmlns="http://www.w3.org/2000/svg">
<path d="M126.571 304.779L23.332 304.303C17.37 304.27 11.6648 301.873 7.46938 297.637C3.27397 293.4 0.931388 287.672 0.956127 281.71L2.05166 22.9049C2.06385 19.9512 2.65804 17.0288 3.8003 14.3048C4.94255 11.5808 6.61047 9.10863 8.7087 7.02961C10.8069 4.95058 13.2943 3.30546 16.0287 2.18829C18.7631 1.07112 21.6908 0.503803 24.6446 0.518767L127.873 0.994188C133.835 1.02427 139.541 3.41942 143.739 7.65359C147.936 11.8878 150.281 17.6147 150.259 23.5767L149.164 282.372C149.152 285.326 148.558 288.25 147.416 290.975C146.274 293.7 144.606 296.174 142.508 298.254C140.41 300.335 137.923 301.982 135.188 303.102C132.454 304.221 129.526 304.791 126.571 304.779Z" fill="#455A64"/>
<path d="M127.718 9.89286H107.709C107.056 9.90496 106.412 10.0456 105.814 10.3066C105.215 10.5677 104.674 10.9441 104.221 11.4144C103.768 11.8847 103.412 12.4396 103.173 13.0475C102.935 13.6554 102.819 14.3043 102.831 14.9571V18.5848C102.843 19.2372 102.727 19.8856 102.488 20.4928C102.249 21.1001 101.893 21.6544 101.44 22.1238C100.987 22.5933 100.446 22.9687 99.8473 23.2287C99.2488 23.4887 98.605 23.628 97.9526 23.6388L58.9473 23.4631C57.6278 23.4279 56.3762 22.8704 55.4673 21.9132C54.5585 20.9559 54.0667 19.677 54.1001 18.3574V14.7298C54.1334 13.4119 53.6431 12.1346 52.7365 11.1776C51.8298 10.2206 50.5809 9.66201 49.2632 9.62414H42.2248L24.7066 9.54146C20.5398 9.51665 16.533 11.1439 13.5634 14.067C10.5939 16.9901 8.90355 20.9707 8.86261 25.1374L7.82909 277.752C7.81956 279.819 8.21728 281.868 8.99953 283.781C9.78178 285.695 10.9333 287.435 12.3882 288.903C13.8431 290.372 15.573 291.539 17.4792 292.339C19.3853 293.139 21.4303 293.555 23.4974 293.565L126.519 294.04C128.588 294.05 130.638 293.652 132.552 292.869C134.467 292.086 136.209 290.934 137.678 289.478C139.147 288.022 140.316 286.291 141.116 284.384C141.916 282.476 142.333 280.43 142.343 278.362L143.376 25.7472C143.401 21.5688 141.765 17.5515 138.829 14.5786C135.893 11.6056 131.897 9.92018 127.718 9.89286Z" fill="white"/>
<path d="M113.859 260.337L37.2535 260.006C36.4577 260.006 35.8169 259.138 35.8273 258.084L35.91 238.044C35.91 237.01 36.5611 236.121 37.3569 236.121L113.962 236.473C114.403 236.549 114.797 236.793 115.063 237.153C115.329 237.513 115.445 237.962 115.388 238.406L115.316 258.425C115.316 259.489 114.654 260.347 113.859 260.337Z" fill="#4CAF4F"/>
<path d="M60.5444 250.124C60.1216 250.124 59.715 250.057 59.3247 249.921C58.9398 249.78 58.6417 249.601 58.4303 249.384L58.6661 248.921C58.8666 249.116 59.135 249.281 59.4711 249.417C59.8126 249.547 60.1704 249.612 60.5444 249.612C60.9022 249.612 61.1922 249.569 61.4144 249.482C61.6421 249.39 61.8075 249.268 61.9105 249.116C62.0189 248.964 62.0731 248.796 62.0731 248.612C62.0731 248.39 62.008 248.211 61.8779 248.075C61.7533 247.94 61.5879 247.834 61.3819 247.758C61.1759 247.677 60.9483 247.606 60.6989 247.547C60.4495 247.487 60.2002 247.425 59.9508 247.36C59.7015 247.289 59.4711 247.197 59.2597 247.083C59.0537 246.969 58.8856 246.82 58.7555 246.636C58.6308 246.446 58.5685 246.2 58.5685 245.896C58.5685 245.614 58.6417 245.357 58.788 245.124C58.9398 244.885 59.1702 244.695 59.4792 244.554C59.7882 244.408 60.1839 244.335 60.6664 244.335C60.9862 244.335 61.3033 244.381 61.6177 244.473C61.9321 244.56 62.2032 244.682 62.4309 244.839L62.2276 245.319C61.9836 245.156 61.7234 245.037 61.447 244.961C61.1759 244.885 60.913 244.847 60.6582 244.847C60.3167 244.847 60.0348 244.893 59.8126 244.985C59.5903 245.078 59.425 245.202 59.3166 245.359C59.2136 245.511 59.1621 245.685 59.1621 245.88C59.1621 246.102 59.2244 246.281 59.3491 246.417C59.4792 246.552 59.6472 246.658 59.8532 246.734C60.0647 246.81 60.295 246.877 60.5444 246.937C60.7938 246.997 61.0404 247.062 61.2843 247.132C61.5337 247.203 61.7614 247.295 61.9674 247.409C62.1788 247.517 62.3468 247.663 62.4715 247.848C62.6016 248.032 62.6667 248.273 62.6667 248.571C62.6667 248.848 62.5908 249.105 62.439 249.344C62.2872 249.577 62.0541 249.767 61.7397 249.913C61.4307 250.054 61.0323 250.124 60.5444 250.124ZM63.9777 250.076V244.384H64.5794V250.076H63.9777ZM66.4314 250.076V244.384H66.9274L70.8548 249.328H70.5946V244.384H71.1882V250.076H70.6922L66.7729 245.132H67.0331V250.076H66.4314ZM75.5423 250.124C75.1086 250.124 74.7075 250.054 74.3389 249.913C73.9757 249.767 73.6586 249.563 73.3875 249.303C73.1219 249.043 72.9132 248.737 72.7614 248.384C72.615 248.032 72.5419 247.647 72.5419 247.23C72.5419 246.812 72.615 246.427 72.7614 246.075C72.9132 245.723 73.1246 245.416 73.3956 245.156C73.6667 244.896 73.9838 244.695 74.347 244.554C74.7156 244.408 75.1168 244.335 75.5504 244.335C75.9841 244.335 76.3798 244.403 76.7376 244.538C77.1008 244.674 77.4098 244.88 77.6646 245.156L77.2905 245.538C77.052 245.3 76.7891 245.129 76.5018 245.026C76.2145 244.923 75.9055 244.872 75.5748 244.872C75.2225 244.872 74.8972 244.931 74.5991 245.051C74.3063 245.164 74.0489 245.33 73.8266 245.547C73.6098 245.758 73.439 246.007 73.3143 246.295C73.1951 246.576 73.1354 246.888 73.1354 247.23C73.1354 247.566 73.1951 247.877 73.3143 248.165C73.439 248.452 73.6098 248.704 73.8266 248.921C74.0489 249.132 74.3063 249.298 74.5991 249.417C74.8972 249.531 75.2198 249.588 75.5667 249.588C75.892 249.588 76.1982 249.539 76.4855 249.441C76.7783 249.344 77.0466 249.178 77.2905 248.945L77.632 249.401C77.361 249.639 77.0439 249.821 76.6807 249.946C76.3175 250.065 75.938 250.124 75.5423 250.124ZM77.0547 249.328V247.23H77.632V249.401L77.0547 249.328ZM83.7562 250.124C83.0298 250.124 82.4579 249.916 82.0405 249.498C81.6231 249.081 81.4144 248.463 81.4144 247.644V244.384H82.0161V247.62C82.0161 248.292 82.1679 248.788 82.4714 249.108C82.775 249.428 83.2032 249.588 83.7562 249.588C84.3145 249.588 84.7455 249.428 85.0491 249.108C85.3526 248.788 85.5044 248.292 85.5044 247.62V244.384H86.0899V247.644C86.0899 248.463 85.8812 249.081 85.4637 249.498C85.0518 249.916 84.4826 250.124 83.7562 250.124ZM87.9031 250.076V244.384H90.0335C90.5159 244.384 90.9306 244.462 91.2776 244.62C91.6245 244.771 91.8901 244.994 92.0744 245.286C92.2641 245.574 92.359 245.923 92.359 246.335C92.359 246.736 92.2641 247.083 92.0744 247.376C91.8901 247.663 91.6245 247.886 91.2776 248.043C90.9306 248.2 90.5159 248.279 90.0335 248.279H88.2365L88.5048 247.994V250.076H87.9031ZM88.5048 248.043L88.2365 247.75H90.0172C90.5864 247.75 91.0174 247.628 91.3101 247.384C91.6082 247.135 91.7573 246.785 91.7573 246.335C91.7573 245.88 91.6082 245.528 91.3101 245.278C91.0174 245.029 90.5864 244.904 90.0172 244.904H88.2365L88.5048 244.62V248.043Z" fill="#E8E8E3"/>
<path d="M52.5333 84.1519L25.9513 84.0313L25.9292 88.9095L52.5112 89.0301L52.5333 84.1519Z" fill="#4CAF4F"/>
<path opacity="0.1" d="M52.5333 84.1519L25.9513 84.0313L25.9292 88.9095L52.5112 89.0301L52.5333 84.1519Z" fill="black"/>
<path d="M130.457 114.103C130.666 114.082 130.871 114.034 131.067 113.959C131.353 113.847 131.602 113.657 131.784 113.41C131.967 113.163 132.077 112.87 132.1 112.563C132.1 110.92 132.1 108.522 132.1 105.442C132.1 103.902 132.1 102.176 132.1 100.275C132.1 99.8097 132.1 99.3239 132.1 98.8381C132.168 98.3668 132.065 97.8869 131.811 97.4842C131.669 97.2912 131.484 97.1338 131.27 97.0244C131.057 96.915 130.821 96.8566 130.581 96.8538H128.969H114.034L27.5901 96.5334C27.3688 96.5296 27.1499 96.5793 26.952 96.6783C26.7541 96.7773 26.583 96.9226 26.4532 97.1018C26.2036 97.5061 26.1082 97.9868 26.1845 98.4557C26.1845 99.4893 26.1845 100.523 26.1845 101.556C26.1845 103.623 26.1845 105.69 26.1845 107.757C26.1845 108.791 26.1845 109.825 26.1845 110.858C26.1416 111.339 26.1416 111.824 26.1845 112.305C26.2388 112.511 26.3397 112.703 26.4795 112.864C26.6192 113.025 26.7941 113.152 26.9906 113.235C27.1943 113.316 27.4123 113.355 27.6314 113.349H32.8921L55.8467 113.473L94.7073 113.711L120.907 113.917L128.028 114H129.878C130.302 114 130.509 114 130.509 114H129.878H128.028H120.907H94.7073L55.8467 113.876L32.8921 113.783H27.6314C27.3419 113.795 27.0532 113.745 26.7839 113.638C26.5118 113.522 26.2698 113.345 26.0763 113.121C25.8829 112.898 25.7431 112.632 25.6677 112.346C25.6079 112.075 25.587 111.797 25.6057 111.52V110.755C25.6057 109.721 25.6057 108.688 25.6057 107.654C25.6057 105.587 25.6057 103.52 25.6057 101.453C25.6057 100.419 25.6057 99.3859 25.6057 98.3524C25.586 98.0771 25.586 97.8008 25.6057 97.5256C25.6445 97.2215 25.762 96.9329 25.9468 96.6884C26.1251 96.4389 26.3611 96.2363 26.6346 96.0977C26.9081 95.9591 27.2111 95.8888 27.5178 95.8926L113.962 96.368L128.896 96.4714H130.509C130.793 96.4716 131.073 96.5403 131.324 96.6716C131.576 96.8029 131.793 96.9931 131.956 97.2258C132.247 97.6752 132.365 98.2153 132.286 98.7451C132.286 99.2309 132.286 99.7166 132.286 100.182C132.286 102.063 132.286 103.789 132.286 105.349C132.286 108.45 132.214 110.827 132.193 112.481C132.168 112.799 132.052 113.103 131.86 113.357C131.668 113.612 131.407 113.806 131.108 113.917C130.913 114.039 130.687 114.103 130.457 114.103Z" fill="#E0E0E0"/>
<path d="M82.5531 101.722H33.936V106.28H82.5531V101.722Z" fill="#4CAF4F"/>
<path opacity="0.2" d="M82.5531 101.722H33.936V106.28H82.5531V101.722Z" fill="white"/>
<path d="M52.352 128.654L25.77 128.534L25.7479 133.412L52.3299 133.532L52.352 128.654Z" fill="#4CAF4F"/>
<path opacity="0.1" d="M52.352 128.654L25.77 128.534L25.7479 133.412L52.3299 133.532L52.352 128.654Z" fill="black"/>
<path d="M129.785 158.607C129.994 158.581 130.201 158.543 130.405 158.493C130.694 158.401 130.96 158.249 131.184 158.045C131.409 157.842 131.587 157.593 131.708 157.315C131.87 156.898 131.934 156.449 131.894 156.002C131.894 155.506 131.894 154.969 131.894 154.37C131.894 153.171 131.894 151.806 131.894 150.235V143.673C131.943 143.197 131.838 142.719 131.594 142.308C131.339 141.887 130.938 141.574 130.467 141.43C129.953 141.338 129.428 141.31 128.907 141.347H114.034L27.8899 141.027C27.4265 141.028 26.9793 141.197 26.6314 141.503C26.2835 141.809 26.0586 142.231 25.9985 142.691C25.9985 143.673 25.9985 144.758 25.9985 145.791C25.9985 147.858 25.9985 149.925 25.9985 151.992C25.9985 153.026 25.9985 154.059 25.9985 155.093C25.96 155.576 25.9808 156.062 26.0605 156.54C26.1896 156.959 26.4552 157.323 26.815 157.573C27.1968 157.816 27.6452 157.931 28.0966 157.904H29.5332H32.5201L55.392 158.018L94.1182 158.256L120.225 158.462L127.325 158.545H120.225H94.1182L55.3713 158.504L32.4994 158.421H28.0036C27.4445 158.454 26.8898 158.305 26.4223 157.997C25.952 157.671 25.6088 157.193 25.4507 156.643C25.3581 156.118 25.3303 155.584 25.3681 155.052C25.3681 154.018 25.3681 152.985 25.3681 151.951C25.3681 149.884 25.3681 147.817 25.3681 145.75C25.3681 144.716 25.3681 143.683 25.3681 142.649C25.4435 142.058 25.7317 141.515 26.1787 141.121C26.6258 140.728 27.2011 140.51 27.7968 140.51L113.941 140.985L128.814 141.099C129.368 141.065 129.923 141.103 130.467 141.213C131.004 141.388 131.457 141.756 131.739 142.246C132.006 142.701 132.122 143.23 132.069 143.755C132.069 144.241 132.069 144.716 132.069 145.192C132.069 147.062 132.069 148.778 132.069 150.359C132.069 151.941 132.069 153.274 132.069 154.494C132.069 155.083 132.069 155.63 132.069 156.137C132.107 156.599 132.032 157.063 131.852 157.491C131.718 157.776 131.524 158.029 131.283 158.232C131.042 158.435 130.761 158.584 130.457 158.669C130.231 158.688 130.004 158.667 129.785 158.607Z" fill="#E0E0E0"/>
<path d="M52.1517 175.089L25.5697 174.969L25.5476 179.847L52.1296 179.967L52.1517 175.089Z" fill="#4CAF4F"/>
<path opacity="0.1" d="M52.1517 175.089L25.5697 174.969L25.5476 179.847L52.1296 179.967L52.1517 175.089Z" fill="black"/>
<path d="M129.578 205.023C129.787 204.998 129.995 204.96 130.199 204.909C130.486 204.818 130.751 204.666 130.975 204.465C131.2 204.264 131.379 204.017 131.501 203.741C131.663 203.324 131.727 202.875 131.687 202.429C131.687 201.922 131.687 201.395 131.687 200.785C131.687 199.597 131.687 198.222 131.687 196.651V190.088C131.736 189.613 131.631 189.135 131.387 188.724C131.126 188.31 130.727 188.003 130.261 187.856C129.746 187.76 129.222 187.729 128.7 187.763H113.828L27.6831 187.442C27.2198 187.443 26.7726 187.613 26.4247 187.919C26.0768 188.225 25.8519 188.647 25.7918 189.106C25.7918 190.14 25.7918 191.173 25.7918 192.207C25.7918 194.274 25.7918 196.341 25.7918 198.408C25.7918 199.442 25.7918 200.475 25.7918 201.509C25.7533 201.988 25.7741 202.471 25.8538 202.945C25.9776 203.367 26.2443 203.732 26.6083 203.979C26.9877 204.227 27.4379 204.343 27.8898 204.309H32.3857L55.2576 204.434L93.9838 204.671L120.091 204.878L127.191 204.961H120.091H93.9838L55.2576 204.847L32.3857 204.754H27.8898C27.3304 204.792 26.7742 204.643 26.3085 204.33C25.8383 204.004 25.495 203.526 25.337 202.976C25.2444 202.451 25.2166 201.917 25.2543 201.385C25.2543 200.351 25.2543 199.318 25.2543 198.284C25.2543 196.217 25.2543 194.15 25.2543 192.083C25.2543 191.049 25.2543 190.016 25.2543 188.931C25.3274 188.341 25.6135 187.797 26.0589 187.403C26.5042 187.01 27.0782 186.792 27.6728 186.791L113.817 187.267L128.69 187.38C129.243 187.346 129.799 187.385 130.343 187.494C130.88 187.669 131.333 188.038 131.615 188.528C131.882 188.983 131.998 189.511 131.945 190.037C131.945 190.522 131.945 191.008 131.945 191.473C131.945 193.344 131.945 195.059 131.945 196.641C131.945 198.222 131.945 199.555 131.945 200.775C131.945 201.364 131.945 201.912 131.945 202.418C131.985 202.88 131.91 203.345 131.728 203.772C131.594 204.057 131.4 204.31 131.159 204.513C130.918 204.717 130.637 204.866 130.333 204.95C130.091 205.033 129.832 205.058 129.578 205.023Z" fill="#E0E0E0"/>
<path d="M81.5152 147.514L32.8986 147.293L32.8779 151.851L81.4945 152.072L81.5152 147.514Z" fill="#4CAF4F"/>
<path opacity="0.2" d="M81.5152 147.514L32.8986 147.293L32.8779 151.851L81.4945 152.072L81.5152 147.514Z" fill="white"/>
<path d="M37.2949 196.589C37.2644 197.005 37.1125 197.402 36.8581 197.733C36.6037 198.063 36.258 198.311 35.8638 198.447C35.4696 198.582 35.0443 198.599 34.6406 198.495C34.2369 198.391 33.8726 198.171 33.5929 197.862C33.3132 197.553 33.1304 197.168 33.0671 196.756C33.0039 196.344 33.0629 195.923 33.237 195.544C33.4111 195.165 33.6926 194.846 34.0465 194.626C34.4004 194.405 34.8111 194.294 35.2278 194.305C35.8036 194.337 36.3436 194.595 36.7305 195.022C37.1175 195.45 37.3203 196.013 37.2949 196.589Z" fill="#4CAF4F"/>
<path d="M43.8785 196.62C43.8988 196.911 43.8589 197.204 43.7614 197.479C43.6639 197.755 43.5108 198.007 43.3116 198.22C43.1123 198.434 42.8713 198.604 42.6034 198.721C42.3356 198.837 42.0466 198.897 41.7545 198.897C41.4625 198.897 41.1735 198.837 40.9056 198.721C40.6378 198.604 40.3968 198.434 40.1975 198.22C39.9983 198.007 39.8452 197.755 39.7477 197.479C39.6501 197.204 39.6103 196.911 39.6307 196.62C39.6103 196.329 39.6501 196.036 39.7477 195.761C39.8452 195.486 39.9983 195.233 40.1975 195.02C40.3968 194.806 40.6378 194.636 40.9056 194.519C41.1735 194.403 41.4625 194.343 41.7545 194.343C42.0466 194.343 42.3356 194.403 42.6034 194.519C42.8713 194.636 43.1123 194.806 43.3116 195.02C43.5108 195.233 43.6639 195.486 43.7614 195.761C43.8589 196.036 43.8988 196.329 43.8785 196.62Z" fill="#4CAF4F"/>
<path d="M50.4724 196.651C50.4419 197.067 50.29 197.464 50.0356 197.795C49.7812 198.125 49.4355 198.373 49.0413 198.509C48.6471 198.644 48.2218 198.661 47.8181 198.557C47.4144 198.453 47.0501 198.233 46.7704 197.924C46.4907 197.615 46.3079 197.23 46.2446 196.818C46.1814 196.406 46.2404 195.985 46.4145 195.606C46.5886 195.227 46.8701 194.908 47.224 194.688C47.5779 194.467 47.9886 194.356 48.4053 194.367C48.9802 194.402 49.5185 194.66 49.9049 195.087C50.2914 195.514 50.4951 196.076 50.4724 196.651Z" fill="#4CAF4F"/>
<path d="M57.056 196.682C57.0255 197.098 56.8736 197.495 56.6192 197.826C56.3648 198.156 56.019 198.404 55.6248 198.54C55.2306 198.675 54.8053 198.692 54.4016 198.588C53.998 198.484 53.6337 198.264 53.354 197.955C53.0743 197.646 52.8915 197.261 52.8282 196.849C52.7649 196.437 52.824 196.016 52.9981 195.637C53.1722 195.258 53.4536 194.939 53.8075 194.719C54.1614 194.499 54.5722 194.387 54.9889 194.398C55.5637 194.433 56.1021 194.691 56.4885 195.118C56.8749 195.545 57.0786 196.107 57.056 196.682Z" fill="#4CAF4F"/>
<path d="M63.6395 196.703C63.611 197.119 63.4608 197.518 63.2075 197.85C62.9542 198.181 62.609 198.431 62.2148 198.568C61.8207 198.705 61.3949 198.724 60.9905 198.621C60.586 198.518 60.2208 198.298 59.94 197.989C59.6593 197.681 59.4755 197.296 59.4115 196.884C59.3475 196.471 59.4062 196.049 59.5801 195.67C59.754 195.291 60.0356 194.971 60.3898 194.75C60.744 194.53 61.1553 194.418 61.5725 194.429C62.1454 194.464 62.6822 194.721 63.0683 195.146C63.4545 195.57 63.6594 196.129 63.6395 196.703Z" fill="#4CAF4F"/>
<path d="M70.2334 196.734C70.2052 197.148 70.0565 197.545 69.8057 197.876C69.5548 198.206 69.2127 198.457 68.8214 198.596C68.4302 198.734 68.0069 198.756 67.6036 198.657C67.2003 198.559 66.8347 198.344 66.5517 198.041C66.2686 197.737 66.0806 197.357 66.0106 196.948C65.9407 196.538 65.992 196.118 66.1581 195.737C66.3242 195.357 66.5979 195.033 66.9455 194.806C67.2932 194.579 67.6995 194.459 68.1147 194.46C68.6968 194.482 69.2467 194.733 69.6438 195.159C70.0409 195.585 70.253 196.152 70.2334 196.734Z" fill="#4CAF4F"/>
<path d="M76.817 196.765C76.8373 197.056 76.7975 197.349 76.7 197.624C76.6024 197.899 76.4493 198.152 76.2501 198.365C76.0509 198.579 75.8098 198.749 75.542 198.866C75.2741 198.982 74.9852 199.042 74.6931 199.042C74.401 199.042 74.112 198.982 73.8442 198.866C73.5763 198.749 73.3353 198.579 73.1361 198.365C72.9369 198.152 72.7837 197.899 72.6862 197.624C72.5887 197.349 72.5489 197.056 72.5692 196.765C72.5489 196.473 72.5887 196.181 72.6862 195.906C72.7837 195.63 72.9369 195.378 73.1361 195.164C73.3353 194.951 73.5763 194.78 73.8442 194.664C74.112 194.548 74.401 194.487 74.6931 194.487C74.9852 194.487 75.2741 194.548 75.542 194.664C75.8098 194.78 76.0509 194.951 76.2501 195.164C76.4493 195.378 76.6024 195.63 76.7 195.906C76.7975 196.181 76.8373 196.473 76.817 196.765Z" fill="#4CAF4F"/>
<path d="M83.4005 196.796C83.3723 197.21 83.2236 197.607 82.9727 197.938C82.7219 198.268 82.3798 198.519 81.9885 198.658C81.5973 198.796 81.174 198.818 80.7707 198.719C80.3674 198.621 80.0018 198.406 79.7188 198.103C79.4357 197.799 79.2477 197.419 79.1778 197.01C79.1078 196.6 79.1591 196.18 79.3252 195.799C79.4913 195.419 79.765 195.095 80.1126 194.868C80.4602 194.641 80.8667 194.521 81.2818 194.522C81.864 194.544 82.4138 194.795 82.8109 195.221C83.2081 195.647 83.4201 196.214 83.4005 196.796Z" fill="#4CAF4F"/>
<path d="M89.9841 196.827C89.9556 197.243 89.8054 197.642 89.5521 197.974C89.2988 198.305 88.9536 198.555 88.5594 198.692C88.1653 198.829 87.7395 198.848 87.3351 198.745C86.9307 198.642 86.5654 198.422 86.2846 198.113C86.0039 197.805 85.8201 197.42 85.7561 197.008C85.6921 196.595 85.7508 196.173 85.9247 195.794C86.0986 195.415 86.3802 195.095 86.7344 194.874C87.0886 194.654 87.4999 194.542 87.9171 194.553C88.49 194.588 89.0268 194.845 89.4129 195.27C89.7991 195.694 90.004 196.253 89.9841 196.827Z" fill="#4CAF4F"/>
<g opacity="0.2">
<path d="M37.2949 196.589C37.2644 197.005 37.1125 197.402 36.8581 197.733C36.6037 198.063 36.258 198.311 35.8638 198.447C35.4696 198.582 35.0443 198.599 34.6406 198.495C34.2369 198.391 33.8726 198.171 33.5929 197.862C33.3132 197.553 33.1304 197.168 33.0671 196.756C33.0039 196.344 33.0629 195.923 33.237 195.544C33.4111 195.165 33.6926 194.846 34.0465 194.626C34.4004 194.405 34.8111 194.294 35.2278 194.305C35.8036 194.337 36.3436 194.595 36.7305 195.022C37.1175 195.45 37.3203 196.013 37.2949 196.589Z" fill="white"/>
<path d="M43.8785 196.62C43.8988 196.911 43.8589 197.204 43.7614 197.479C43.6639 197.755 43.5108 198.007 43.3116 198.22C43.1123 198.434 42.8713 198.604 42.6034 198.721C42.3356 198.837 42.0466 198.897 41.7545 198.897C41.4625 198.897 41.1735 198.837 40.9056 198.721C40.6378 198.604 40.3968 198.434 40.1975 198.22C39.9983 198.007 39.8452 197.755 39.7477 197.479C39.6501 197.204 39.6103 196.911 39.6307 196.62C39.6103 196.329 39.6501 196.036 39.7477 195.761C39.8452 195.486 39.9983 195.233 40.1975 195.02C40.3968 194.806 40.6378 194.636 40.9056 194.519C41.1735 194.403 41.4625 194.343 41.7545 194.343C42.0466 194.343 42.3356 194.403 42.6034 194.519C42.8713 194.636 43.1123 194.806 43.3116 195.02C43.5108 195.233 43.6639 195.486 43.7614 195.761C43.8589 196.036 43.8988 196.329 43.8785 196.62Z" fill="white"/>
<path d="M50.4724 196.651C50.4419 197.067 50.29 197.464 50.0356 197.795C49.7812 198.125 49.4355 198.373 49.0413 198.509C48.6471 198.644 48.2218 198.661 47.8181 198.557C47.4144 198.453 47.0501 198.233 46.7704 197.924C46.4907 197.615 46.3079 197.23 46.2446 196.818C46.1814 196.406 46.2404 195.985 46.4145 195.606C46.5886 195.227 46.8701 194.908 47.224 194.688C47.5779 194.467 47.9886 194.356 48.4053 194.367C48.9802 194.402 49.5185 194.66 49.9049 195.087C50.2914 195.514 50.4951 196.076 50.4724 196.651Z" fill="white"/>
<path d="M57.056 196.682C57.0255 197.098 56.8736 197.495 56.6192 197.826C56.3648 198.156 56.019 198.404 55.6248 198.54C55.2306 198.675 54.8053 198.692 54.4016 198.588C53.998 198.484 53.6337 198.264 53.354 197.955C53.0743 197.646 52.8915 197.261 52.8282 196.849C52.7649 196.437 52.824 196.016 52.9981 195.637C53.1722 195.258 53.4536 194.939 53.8075 194.719C54.1614 194.499 54.5722 194.387 54.9889 194.398C55.5637 194.433 56.1021 194.691 56.4885 195.118C56.8749 195.545 57.0786 196.107 57.056 196.682Z" fill="white"/>
<path d="M63.6395 196.703C63.611 197.119 63.4608 197.518 63.2075 197.85C62.9542 198.181 62.609 198.431 62.2148 198.568C61.8207 198.705 61.3949 198.724 60.9905 198.621C60.586 198.518 60.2208 198.298 59.94 197.989C59.6593 197.681 59.4755 197.296 59.4115 196.884C59.3475 196.471 59.4062 196.049 59.5801 195.67C59.754 195.291 60.0356 194.971 60.3898 194.75C60.744 194.53 61.1553 194.418 61.5725 194.429C62.1454 194.464 62.6822 194.721 63.0683 195.146C63.4545 195.57 63.6594 196.129 63.6395 196.703Z" fill="white"/>
<path d="M70.2334 196.734C70.2052 197.148 70.0565 197.545 69.8056 197.876C69.5547 198.206 69.2126 198.457 68.8214 198.596C68.4301 198.734 68.0068 198.756 67.6035 198.657C67.2003 198.559 66.8346 198.344 66.5516 198.041C66.2686 197.737 66.0805 197.357 66.0106 196.948C65.9407 196.538 65.9919 196.118 66.158 195.737C66.3241 195.357 66.5978 195.033 66.9455 194.806C67.2931 194.579 67.6995 194.459 68.1146 194.46C68.6968 194.482 69.2466 194.733 69.6438 195.159C70.0409 195.585 70.2529 196.152 70.2334 196.734Z" fill="white"/>
<path d="M76.817 196.765C76.8373 197.056 76.7975 197.349 76.7 197.624C76.6024 197.899 76.4493 198.152 76.2501 198.365C76.0509 198.579 75.8098 198.749 75.542 198.866C75.2741 198.982 74.9852 199.042 74.6931 199.042C74.401 199.042 74.112 198.982 73.8442 198.866C73.5763 198.749 73.3353 198.579 73.1361 198.365C72.9369 198.152 72.7837 197.899 72.6862 197.624C72.5887 197.349 72.5489 197.056 72.5692 196.765C72.5489 196.473 72.5887 196.181 72.6862 195.906C72.7837 195.63 72.9369 195.378 73.1361 195.164C73.3353 194.951 73.5763 194.78 73.8442 194.664C74.112 194.548 74.401 194.487 74.6931 194.487C74.9852 194.487 75.2741 194.548 75.542 194.664C75.8098 194.78 76.0509 194.951 76.2501 195.164C76.4493 195.378 76.6024 195.63 76.7 195.906C76.7975 196.181 76.8373 196.473 76.817 196.765Z" fill="white"/>
<path d="M83.4005 196.796C83.3723 197.21 83.2236 197.607 82.9727 197.938C82.7219 198.268 82.3798 198.519 81.9885 198.658C81.5973 198.796 81.174 198.818 80.7707 198.719C80.3674 198.621 80.0018 198.406 79.7188 198.103C79.4357 197.799 79.2477 197.419 79.1778 197.01C79.1078 196.601 79.1591 196.18 79.3252 195.799C79.4913 195.419 79.765 195.095 80.1126 194.868C80.4602 194.641 80.8667 194.521 81.2818 194.522C81.864 194.544 82.4138 194.795 82.8109 195.221C83.2081 195.647 83.4201 196.214 83.4005 196.796Z" fill="white"/>
<path d="M89.9841 196.827C89.9556 197.243 89.8054 197.642 89.5521 197.974C89.2988 198.305 88.9536 198.555 88.5594 198.692C88.1653 198.829 87.7395 198.848 87.3351 198.745C86.9307 198.642 86.5654 198.422 86.2846 198.113C86.0039 197.805 85.8201 197.42 85.7561 197.008C85.6921 196.595 85.7508 196.173 85.9247 195.794C86.0986 195.415 86.3802 195.095 86.7344 194.874C87.0886 194.654 87.4999 194.542 87.9171 194.553C88.49 194.588 89.0268 194.845 89.4129 195.27C89.7991 195.694 90.004 196.253 89.9841 196.827Z" fill="white"/>
</g>
<path d="M80.6307 47.6269C81.3487 47.3107 81.9578 46.7904 82.3823 46.1307C82.8068 45.471 83.0279 44.701 83.0181 43.9165C83.0449 43.4066 82.9675 42.8966 82.7908 42.4175C82.6141 41.9384 82.3417 41.5003 81.9902 41.1299C81.6387 40.7595 81.2155 40.4645 80.7464 40.2629C80.2772 40.0614 79.7719 39.9574 79.2613 39.9574C78.7506 39.9574 78.2453 40.0614 77.7762 40.2629C77.307 40.4645 76.8838 40.7595 76.5323 41.1299C76.1808 41.5003 75.9084 41.9384 75.7317 42.4175C75.555 42.8966 75.4777 43.4066 75.5044 43.9165C75.4887 44.7088 75.708 45.488 76.1348 46.1558C76.5615 46.8235 77.1765 47.3498 77.9022 47.6683C72.1144 48.5364 72.3728 54.8203 72.3728 54.8203L86.0567 54.8823C86.0567 54.8823 86.3771 48.4847 80.6307 47.6269Z" fill="#4CAF4F"/>
<path opacity="0.1" d="M80.6307 47.6269C81.3487 47.3107 81.9578 46.7904 82.3823 46.1307C82.8068 45.471 83.0279 44.701 83.0181 43.9165C83.0449 43.4066 82.9675 42.8966 82.7908 42.4175C82.6141 41.9384 82.3417 41.5003 81.9902 41.1299C81.6387 40.7595 81.2155 40.4645 80.7464 40.2629C80.2772 40.0614 79.7719 39.9574 79.2613 39.9574C78.7506 39.9574 78.2453 40.0614 77.7762 40.2629C77.307 40.4645 76.8838 40.7595 76.5323 41.1299C76.1808 41.5003 75.9084 41.9384 75.7317 42.4175C75.555 42.8966 75.4777 43.4066 75.5044 43.9165C75.4887 44.7088 75.708 45.488 76.1348 46.1558C76.5615 46.8235 77.1765 47.3498 77.9022 47.6683C72.1144 48.5364 72.3728 54.8203 72.3728 54.8203L86.0567 54.8823C86.0567 54.8823 86.3771 48.4847 80.6307 47.6269Z" fill="black"/>
<path d="M102.867 58.9352L54.0949 58.7139L54.0685 64.5429L102.84 64.7642L102.867 58.9352Z" fill="#4CAF4F"/>
<path opacity="0.2" d="M102.867 58.9352L54.0949 58.7139L54.0685 64.5429L102.84 64.7642L102.867 58.9352Z" fill="white"/>
</svg>
